<?xml version="1.0" encoding="utf-8"?>
<!-- Generator: Adobe Illustrator 24.0.0, SVG Export Plug-In . SVG Version: 6.00 Build 0)  -->
<svg version="1.1" id="Layer_1" xmlns="http://www.w3.org/2000/svg" xmlns:xlink="http://www.w3.org/1999/xlink" x="0px" y="0px"
	 viewBox="0 0 253.7 63.4" style="enable-background:new 0 0 253.7 63.4;" xml:space="preserve">
<style type="text/css">
	.st0{fill:#6B6C6C;}
	.st1{fill:#023A2F;}
	.st2{fill:url(#SVGID_1_);}
	.st3{fill:#FFFFFF;}
</style>
<g>
	<path class="st0" d="M81.2,22.8c-0.5,0.9-1.3,1.7-2.4,2.2c-1.1,0.6-2.4,0.9-4,0.9h-2.9v6.9h-4.7V13.5h7.6c1.5,0,2.8,0.3,3.9,0.8
		s1.9,1.3,2.4,2.2c0.5,0.9,0.8,2,0.8,3.2C81.9,20.8,81.7,21.8,81.2,22.8z M76.5,21.5c0.4-0.4,0.7-1,0.7-1.8s-0.2-1.4-0.7-1.8
		c-0.4-0.4-1.1-0.6-2-0.6h-2.6v4.8h2.6C75.4,22.1,76,21.9,76.5,21.5z"/>
	<path class="st0" d="M89.8,17.2v3.9h6.3v3.6h-6.3V29h7.1v3.8H85.1V13.5h11.8v3.8L89.8,17.2L89.8,17.2z"/>
	<path class="st0" d="M104.1,31.7c-1.5-0.8-2.7-2-3.6-3.5s-1.3-3.2-1.3-5.1s0.4-3.6,1.3-5.1s2.1-2.7,3.6-3.5s3.2-1.3,5-1.3
		s3.5,0.4,5,1.3c1.5,0.8,2.7,2,3.6,3.5s1.3,3.2,1.3,5.1s-0.4,3.6-1.3,5.1s-2.1,2.7-3.6,3.5s-3.2,1.3-5,1.3
		C107.3,33,105.6,32.6,104.1,31.7z M112.8,27.1c0.9-1,1.4-2.4,1.4-4.1s-0.5-3.1-1.4-4.1s-2.2-1.5-3.7-1.5c-1.6,0-2.8,0.5-3.7,1.5
		c-0.9,1-1.4,2.4-1.4,4.1s0.5,3.1,1.4,4.1s2.2,1.5,3.7,1.5C110.6,28.7,111.9,28.2,112.8,27.1z"/>
	<path class="st0" d="M135.5,22.8c-0.5,0.9-1.3,1.7-2.4,2.2c-1.1,0.6-2.4,0.9-4,0.9h-2.9v6.9h-4.7V13.5h7.6c1.5,0,2.8,0.3,3.9,0.8
		c1.1,0.5,1.9,1.3,2.4,2.2c0.5,0.9,0.8,2,0.8,3.2C136.3,20.8,136,21.8,135.5,22.8z M130.9,21.5c0.4-0.4,0.7-1,0.7-1.8
		s-0.2-1.4-0.7-1.8c-0.4-0.4-1.1-0.6-2-0.6h-2.6v4.8h2.6C129.7,22.1,130.4,21.9,130.9,21.5z"/>
	<path class="st0" d="M143.5,29.2h6.2v3.6h-10.9V13.5h4.7V29.2z"/>
	<path class="st0" d="M156.6,17.2v3.9h6.3v3.6h-6.3V29h7.1v3.8h-11.8V13.5h11.8v3.8L156.6,17.2L156.6,17.2z"/>
	<path class="st1" d="M167.2,18c0.8-1.5,2-2.7,3.5-3.5s3.2-1.3,5-1.3c2.3,0,4.3,0.6,5.9,1.8s2.7,2.9,3.3,5h-5.2
		c-0.4-0.8-0.9-1.4-1.6-1.8c-0.7-0.4-1.5-0.6-2.4-0.6c-1.4,0-2.6,0.5-3.5,1.5s-1.3,2.4-1.3,4c0,1.7,0.4,3,1.3,4
		c0.9,1,2.1,1.5,3.5,1.5c0.9,0,1.7-0.2,2.4-0.6s1.3-1,1.6-1.8h5.2c-0.6,2.1-1.6,3.7-3.3,4.9s-3.6,1.8-5.9,1.8c-1.9,0-3.5-0.4-5-1.3
		c-1.5-0.8-2.6-2-3.5-3.5c-0.8-1.5-1.2-3.2-1.2-5.1S166.4,19.5,167.2,18z"/>
	<path class="st1" d="M192.4,29.2h6.2v3.6h-10.9V13.5h4.7V29.2z"/>
	<path class="st1" d="M205.6,13.5v19.3h-4.7V13.5H205.6z"/>
	<path class="st1" d="M209.4,18c0.8-1.5,2-2.7,3.5-3.5s3.2-1.3,5-1.3c2.3,0,4.3,0.6,5.9,1.8s2.7,2.9,3.3,5h-5.2
		c-0.4-0.8-0.9-1.4-1.6-1.8c-0.7-0.4-1.5-0.6-2.4-0.6c-1.4,0-2.6,0.5-3.5,1.5s-1.3,2.4-1.3,4c0,1.7,0.4,3,1.3,4
		c0.9,1,2.1,1.5,3.5,1.5c0.9,0,1.7-0.2,2.4-0.6s1.3-1,1.6-1.8h5.2c-0.6,2.1-1.6,3.7-3.3,4.9s-3.6,1.8-5.9,1.8c-1.9,0-3.5-0.4-5-1.3
		c-1.5-0.8-2.6-2-3.5-3.5c-0.8-1.5-1.2-3.2-1.2-5.1S208.6,19.5,209.4,18z"/>
	<path class="st1" d="M241.2,32.8l-6.5-8.5v8.5H230V13.5h4.7V22l6.4-8.5h5.5l-7.5,9.5l7.8,9.9h-5.7V32.8z"/>
</g>
<g>
	<path class="st1" d="M125,49.3h4v1.9h-6.4V39.1h2.4V49.3z"/>
	<path class="st1" d="M138.7,41.1v3h4.1V46h-4.1v3.2h4.6v2h-7V39.1h7v2H138.7z"/>
	<path class="st1" d="M158.7,48.9h-4.8l-0.8,2.3h-2.6l4.4-12.1h2.8l4.4,12.1h-2.6L158.7,48.9z M158.1,47l-1.8-5.1l-1.8,5.1H158.1z"
		/>
	<path class="st1" d="M175.7,51.2l-2.7-4.7h-1.1v4.7h-2.4V39.1h4.5c0.9,0,1.7,0.2,2.4,0.5s1.2,0.8,1.5,1.3c0.3,0.6,0.5,1.2,0.5,1.9
		c0,0.8-0.2,1.5-0.7,2.2c-0.5,0.6-1.2,1.1-2.1,1.3l2.9,4.9H175.7z M171.9,44.7h2c0.7,0,1.2-0.2,1.5-0.5s0.5-0.8,0.5-1.3
		c0-0.6-0.2-1-0.5-1.3s-0.8-0.5-1.5-0.5h-2V44.7z"/>
	<path class="st1" d="M196.8,51.2h-2.4l-5.5-8.3v8.3h-2.4V39.1h2.4l5.5,8.3v-8.3h2.4V51.2z"/>
	<path class="st1" d="M207.4,39.1v12.1H205V39.1H207.4z"/>
	<path class="st1" d="M225.9,51.2h-2.4l-5.5-8.3v8.3h-2.4V39.1h2.4l5.5,8.3v-8.3h2.4V51.2z"/>
	<path class="st1" d="M242.5,42.7c-0.3-0.5-0.7-0.9-1.1-1.2c-0.5-0.3-1.1-0.4-1.7-0.4c-0.7,0-1.4,0.2-1.9,0.5
		c-0.6,0.3-1,0.8-1.3,1.4c-0.3,0.6-0.5,1.3-0.5,2.1s0.2,1.5,0.5,2.1s0.8,1.1,1.3,1.4c0.6,0.3,1.2,0.5,2,0.5c0.9,0,1.7-0.2,2.3-0.7
		s1-1.2,1.2-2.1H239v-1.9h6.6v2.1c-0.2,0.8-0.5,1.6-1,2.3s-1.2,1.3-2.1,1.7c-0.8,0.4-1.8,0.7-2.8,0.7c-1.2,0-2.2-0.3-3.2-0.8
		c-0.9-0.5-1.7-1.3-2.2-2.2s-0.8-2-0.8-3.2s0.3-2.3,0.8-3.2s1.3-1.7,2.2-2.2s2-0.8,3.2-0.8c1.4,0,2.6,0.3,3.6,1s1.7,1.6,2.1,2.8
		h-2.9V42.7z"/>
</g>
<linearGradient id="SVGID_1_" gradientUnits="userSpaceOnUse" x1="12.459" y1="47.8097" x2="55.4136" y2="14.5819" gradientTransform="matrix(1 0 0 -1 0 63.89)">
	<stop  offset="0.1203" style="stop-color:#F04D27"/>
	<stop  offset="1" style="stop-color:#ED1A58"/>
</linearGradient>
<path class="st2" d="M51.7,50.7c-7.7,7.7-18.8,9.8-28.4,6.4c-0.6-0.2-1.2-0.4-1.7-0.7c-2.9-1.2-5.6-3-8-5.3
	c-0.1-0.1-0.2-0.2-0.4-0.4s-0.4-0.4-0.6-0.6c-10-10.6-9.8-27.4,0.6-37.8C23.8,1.7,41,1.7,51.6,12.3C62.3,23,62.3,40.1,51.7,50.7z"/>
<path class="st3" d="M43.1,35c-1.4,4.4-5.6,7.5-10.4,7.5c-6.1,0-11-4.9-11-11s4.9-11,11-11c4.4,0,8.1,2.6,9.9,6.2H52
	C49.9,18,42,11.5,32.6,11.5c-10.8,0-19.6,8.6-19.9,19.3l0,0v0.3c0,0.1,0,0.2,0,0.3s0,0.2,0,0.3V51c0.2,0.2,0.4,0.4,0.6,0.6
	c0.1,0.1,0.2,0.2,0.4,0.4c2.4,2.3,5.1,4.1,8,5.3V48c3.2,2.1,6.9,3.3,11,3.3c9.8,0,18-7.1,19.6-16.5h-9.2V35z"/>
</svg>
